<svg width="392" height="48" viewBox="0 0 392 48" fill="none" xmlns="http://www.w3.org/2000/svg">
<path d="M13.5458 33.96C13.5458 36.616 13.0658 38.808 12.1058 40.536C11.1778 42.264 9.9298 43.608 8.3618 44.568C6.8258 45.56 4.9858 46.408 2.8418 47.112L0.729797 41.544C2.1378 41 3.1938 40.376 3.8978 39.672C4.6018 38.968 5.0658 38.152 5.2898 37.224C5.5458 36.296 5.6738 35.112 5.6738 33.672V5.73599H13.5458V33.96Z" fill="#141414"/>
<path d="M30.5082 12.696C34.4122 12.696 37.4682 13.896 39.6762 16.296C41.8842 18.664 42.9882 21.992 42.9882 26.28C42.9882 29 42.4762 31.384 41.4522 33.432C40.4602 35.448 39.0202 37.016 37.1322 38.136C35.2762 39.256 33.0682 39.816 30.5082 39.816C26.6362 39.816 23.5802 38.632 21.3402 36.264C19.1322 33.864 18.0282 30.52 18.0282 26.232C18.0282 23.512 18.5242 21.144 19.5162 19.128C20.5402 17.08 21.9802 15.496 23.8362 14.376C25.7242 13.256 27.9482 12.696 30.5082 12.696ZM30.5082 18.264C28.9722 18.264 27.8202 18.92 27.0522 20.232C26.2842 21.512 25.9002 23.512 25.9002 26.232C25.9002 29.016 26.2682 31.048 27.0042 32.328C27.7722 33.608 28.9402 34.248 30.5082 34.248C32.0442 34.248 33.1962 33.608 33.9642 32.328C34.7322 31.016 35.1162 29 35.1162 26.28C35.1162 23.496 34.7322 21.464 33.9642 20.184C33.2282 18.904 32.0762 18.264 30.5082 18.264Z" fill="#141414"/>
<path d="M67.2867 31.608C67.2867 32.568 67.4147 33.272 67.6707 33.72C67.9587 34.168 68.4067 34.504 69.0147 34.728L67.4307 39.672C65.8627 39.544 64.5827 39.208 63.5907 38.664C62.5987 38.088 61.8307 37.192 61.2867 35.976C59.6227 38.536 57.0627 39.816 53.6067 39.816C51.0787 39.816 49.0627 39.08 47.5587 37.608C46.0547 36.136 45.3027 34.216 45.3027 31.848C45.3027 29.064 46.3267 26.936 48.3747 25.464C50.4227 23.992 53.3827 23.256 57.2547 23.256H59.8467V22.152C59.8467 20.648 59.5267 19.624 58.8867 19.08C58.2467 18.504 57.1267 18.216 55.5267 18.216C54.6947 18.216 53.6867 18.344 52.5027 18.6C51.3187 18.824 50.1027 19.144 48.8547 19.56L47.1267 14.568C48.7267 13.96 50.3587 13.496 52.0227 13.176C53.7187 12.856 55.2867 12.696 56.7267 12.696C60.3747 12.696 63.0467 13.448 64.7427 14.952C66.4387 16.456 67.2867 18.712 67.2867 21.72V31.608ZM55.8147 34.392C57.5427 34.392 58.8867 33.576 59.8467 31.944V27.432H57.9747C56.2467 27.432 54.9507 27.736 54.0867 28.344C53.2547 28.952 52.8387 29.896 52.8387 31.176C52.8387 32.2 53.0947 33 53.6067 33.576C54.1507 34.12 54.8867 34.392 55.8147 34.392ZM59.8467 8.51999C59.1427 8.51999 58.5347 8.40799 58.0227 8.18399C57.5107 7.95999 56.9507 7.63999 56.3427 7.22399C55.5427 6.64799 54.8867 6.35999 54.3747 6.35999C53.8307 6.35999 53.3667 6.53599 52.9827 6.88799C52.6307 7.20799 52.2467 7.73599 51.8307 8.47199L48.0387 6.64799C48.6787 4.98399 49.5267 3.62399 50.5827 2.56799C51.6707 1.51199 52.8867 0.983991 54.2307 0.983991C54.9667 0.983991 55.5907 1.11199 56.1027 1.36799C56.6467 1.59199 57.2387 1.91199 57.8787 2.32799C58.3267 2.61599 58.6787 2.82399 58.9347 2.95199C59.2227 3.07999 59.5107 3.14399 59.7987 3.14399C60.3107 3.14399 60.7427 2.98399 61.0947 2.66399C61.4787 2.31199 61.8787 1.76799 62.2947 1.03199L66.0867 2.90399C65.4147 4.59999 64.5347 5.95999 63.4467 6.98399C62.3907 8.00799 61.1907 8.51999 59.8467 8.51999Z" fill="#141414"/>
<path d="M84.3675 12.696C88.2715 12.696 91.3275 13.896 93.5355 16.296C95.7435 18.664 96.8475 21.992 96.8475 26.28C96.8475 29 96.3355 31.384 95.3115 33.432C94.3195 35.448 92.8795 37.016 90.9915 38.136C89.1355 39.256 86.9275 39.816 84.3675 39.816C80.4955 39.816 77.4395 38.632 75.1995 36.264C72.9915 33.864 71.8876 30.52 71.8876 26.232C71.8876 23.512 72.3836 21.144 73.3755 19.128C74.3996 17.08 75.8395 15.496 77.6955 14.376C79.5835 13.256 81.8075 12.696 84.3675 12.696ZM84.3675 18.264C82.8315 18.264 81.6795 18.92 80.9115 20.232C80.1435 21.512 79.7595 23.512 79.7595 26.232C79.7595 29.016 80.1275 31.048 80.8635 32.328C81.6315 33.608 82.7995 34.248 84.3675 34.248C85.9035 34.248 87.0555 33.608 87.8235 32.328C88.5915 31.016 88.9755 29 88.9755 26.28C88.9755 23.496 88.5915 21.464 87.8235 20.184C87.0875 18.904 85.9355 18.264 84.3675 18.264Z" fill="#141414"/>
<path d="M127.293 4.91999C131.581 4.91999 135.277 6.27999 138.381 8.99999L134.397 13.176C133.213 12.28 132.109 11.64 131.085 11.256C130.093 10.84 128.941 10.632 127.629 10.632C125.165 10.632 123.197 11.608 121.725 13.56C120.253 15.48 119.517 18.408 119.517 22.344C119.517 26.6 120.077 29.624 121.197 31.416C122.317 33.176 124.061 34.056 126.429 34.056C128.093 34.056 129.597 33.688 130.941 32.952V25.416H126.621L125.853 19.848H138.573V36.312C136.845 37.432 134.941 38.296 132.861 38.904C130.781 39.512 128.701 39.816 126.621 39.816C121.565 39.816 117.757 38.344 115.197 35.4C112.637 32.424 111.357 28.072 111.357 22.344C111.357 18.696 112.045 15.56 113.421 12.936C114.829 10.312 116.733 8.32799 119.133 6.98399C121.565 5.60799 124.285 4.91999 127.293 4.91999Z" fill="#141414"/>
<path d="M163.943 31.608C163.943 32.568 164.071 33.272 164.327 33.72C164.615 34.168 165.063 34.504 165.671 34.728L164.087 39.672C162.519 39.544 161.239 39.208 160.247 38.664C159.255 38.088 158.487 37.192 157.943 35.976C156.279 38.536 153.719 39.816 150.263 39.816C147.735 39.816 145.719 39.08 144.215 37.608C142.711 36.136 141.959 34.216 141.959 31.848C141.959 29.064 142.983 26.936 145.031 25.464C147.079 23.992 150.039 23.256 153.911 23.256H156.503V22.152C156.503 20.648 156.183 19.624 155.543 19.08C154.903 18.504 153.783 18.216 152.183 18.216C151.351 18.216 150.343 18.344 149.159 18.6C147.975 18.824 146.759 19.144 145.511 19.56L143.783 14.568C145.383 13.96 147.015 13.496 148.679 13.176C150.375 12.856 151.943 12.696 153.383 12.696C157.031 12.696 159.703 13.448 161.399 14.952C163.095 16.456 163.943 18.712 163.943 21.72V31.608ZM152.471 34.392C154.199 34.392 155.543 33.576 156.503 31.944V27.432H154.631C152.903 27.432 151.607 27.736 150.743 28.344C149.911 28.952 149.495 29.896 149.495 31.176C149.495 32.2 149.751 33 150.263 33.576C150.807 34.12 151.543 34.392 152.471 34.392Z" fill="#141414"/>
<path d="M184.432 12.696C187.472 12.696 189.808 13.896 191.44 16.296C193.072 18.664 193.888 21.992 193.888 26.28C193.888 28.904 193.472 31.24 192.64 33.288C191.84 35.336 190.672 36.936 189.136 38.088C187.632 39.24 185.84 39.816 183.76 39.816C182.384 39.816 181.12 39.528 179.968 38.952C178.848 38.376 177.888 37.576 177.088 36.552L176.704 39H169.984V3.38399L177.568 2.56799V16.104C178.336 15.048 179.312 14.216 180.496 13.608C181.712 13 183.024 12.696 184.432 12.696ZM181.552 34.296C184.528 34.296 186.016 31.624 186.016 26.28C186.016 23.24 185.664 21.144 184.96 19.992C184.256 18.84 183.232 18.264 181.888 18.264C180.192 18.264 178.752 19.256 177.568 21.24V31.848C178.048 32.616 178.624 33.224 179.296 33.672C180 34.088 180.752 34.296 181.552 34.296Z" fill="#141414"/>
<path d="M212.448 12.792C213.376 12.792 214.224 12.904 214.992 13.128L213.792 20.472C212.832 20.248 212.064 20.136 211.488 20.136C209.984 20.136 208.832 20.664 208.032 21.72C207.264 22.744 206.656 24.296 206.208 26.376V39H198.624V13.512H205.248L205.872 18.456C206.448 16.696 207.312 15.32 208.464 14.328C209.648 13.304 210.976 12.792 212.448 12.792Z" fill="#141414"/>
<path d="M225.474 13.512V39H217.89V13.512H225.474ZM221.634 0.071991C222.946 0.071991 224.018 0.487991 224.85 1.31999C225.714 2.11999 226.146 3.14399 226.146 4.39199C226.146 5.63999 225.714 6.67999 224.85 7.51199C224.018 8.31199 222.946 8.71199 221.634 8.71199C220.322 8.71199 219.25 8.31199 218.418 7.51199C217.586 6.67999 217.17 5.63999 217.17 4.39199C217.17 3.14399 217.586 2.11999 218.418 1.31999C219.25 0.487991 220.322 0.071991 221.634 0.071991Z" fill="#141414"/>
<path d="M253.661 25.752C253.661 26.808 253.613 27.72 253.517 28.488H237.725C237.981 30.632 238.589 32.136 239.549 33C240.509 33.864 241.837 34.296 243.533 34.296C244.557 34.296 245.549 34.12 246.509 33.768C247.469 33.384 248.509 32.808 249.629 32.04L252.749 36.264C249.773 38.632 246.461 39.816 242.813 39.816C238.685 39.816 235.517 38.6 233.309 36.168C231.101 33.736 229.997 30.472 229.997 26.376C229.997 23.784 230.461 21.464 231.389 19.416C232.317 17.336 233.677 15.704 235.469 14.52C237.261 13.304 239.405 12.696 241.901 12.696C245.581 12.696 248.461 13.848 250.541 16.152C252.621 18.456 253.661 21.656 253.661 25.752ZM246.221 23.592C246.157 19.688 244.781 17.736 242.093 17.736C240.781 17.736 239.757 18.216 239.021 19.176C238.317 20.136 237.885 21.72 237.725 23.928H246.221V23.592Z" fill="#141414"/>
<path d="M264.689 39.816C262.481 39.816 260.753 39.192 259.505 37.944C258.289 36.664 257.681 34.856 257.681 32.52V3.38399L265.265 2.56799V32.232C265.265 33.288 265.697 33.816 266.561 33.816C267.009 33.816 267.425 33.736 267.809 33.576L269.297 38.952C267.921 39.528 266.385 39.816 264.689 39.816Z" fill="#141414"/>
<path d="M301.418 21.384C303.626 21.8 305.418 22.616 306.794 23.832C308.202 25.048 308.906 26.872 308.906 29.304C308.906 32.856 307.626 35.368 305.066 36.84C302.538 38.28 298.986 39 294.41 39H283.706V5.73599H293.114C297.786 5.73599 301.354 6.40799 303.818 7.75199C306.282 9.06399 307.514 11.224 307.514 14.232C307.514 16.184 306.922 17.768 305.738 18.984C304.586 20.168 303.146 20.968 301.418 21.384ZM291.578 11.304V19.032H294.506C297.834 19.032 299.498 17.688 299.498 15C299.498 13.656 299.05 12.712 298.154 12.168C297.258 11.592 295.834 11.304 293.882 11.304H291.578ZM294.458 33.288C296.538 33.288 298.106 32.984 299.162 32.376C300.25 31.736 300.794 30.568 300.794 28.872C300.794 25.8 298.874 24.264 295.034 24.264H291.578V33.288H294.458Z" fill="#141414"/>
<path d="M320.771 13.512V39H313.187V13.512H320.771ZM316.931 0.071991C318.243 0.071991 319.315 0.487991 320.147 1.31999C321.011 2.11999 321.443 3.14399 321.443 4.39199C321.443 5.63999 321.011 6.67999 320.147 7.51199C319.315 8.31199 318.243 8.71199 316.931 8.71199C315.619 8.71199 314.547 8.31199 313.715 7.51199C312.883 6.67999 312.467 5.63999 312.467 4.39199C312.467 3.14399 312.883 2.11999 313.715 1.31999C314.547 0.487991 315.619 0.071991 316.931 0.071991Z" fill="#141414"/>
<path d="M333.502 39.816C331.294 39.816 329.566 39.192 328.318 37.944C327.102 36.664 326.494 34.856 326.494 32.52V3.38399L334.078 2.56799V32.232C334.078 33.288 334.51 33.816 335.374 33.816C335.822 33.816 336.238 33.736 336.622 33.576L338.11 38.952C336.734 39.528 335.198 39.816 333.502 39.816Z" fill="#141414"/>
<path d="M362.973 25.752C362.973 26.808 362.925 27.72 362.829 28.488H347.037C347.293 30.632 347.901 32.136 348.861 33C349.821 33.864 351.149 34.296 352.845 34.296C353.869 34.296 354.861 34.12 355.821 33.768C356.781 33.384 357.821 32.808 358.941 32.04L362.061 36.264C359.085 38.632 355.773 39.816 352.125 39.816C347.997 39.816 344.829 38.6 342.621 36.168C340.413 33.736 339.309 30.472 339.309 26.376C339.309 23.784 339.773 21.464 340.701 19.416C341.629 17.336 342.989 15.704 344.781 14.52C346.573 13.304 348.717 12.696 351.213 12.696C354.893 12.696 357.773 13.848 359.853 16.152C361.933 18.456 362.973 21.656 362.973 25.752ZM355.533 23.592C355.469 19.688 354.093 17.736 351.405 17.736C350.093 17.736 349.069 18.216 348.333 19.176C347.629 20.136 347.197 21.72 347.037 23.928H355.533V23.592Z" fill="#141414"/>
<path d="M374.818 2.56799V39H367.234V3.38399L374.818 2.56799ZM390.562 13.512L382.834 24.696L391.186 39H382.642L375.058 25.08L382.834 13.512H390.562Z" fill="#141414"/>
</svg>
